HIERARCHY
ROOT Bip001_Pelvis
{
  OFFSET 33.2923 95.8902 -28.781
  CHANNELS 6 Xposition Yposition Zposition Zrotation Xrotation Yrotation
  JOINT Bip001_Spine
  {
    OFFSET 1.4188e-005 10.2191 -0.0116013
    CHANNELS 3 Zrotation Xrotation Yrotation
    JOINT Bip001_L_Thigh
    {
      OFFSET 11.0458 -10.2192 0.0116197
      CHANNELS 3 Zrotation Xrotation Yrotation
      JOINT Bip001_L_Calf
      {
        OFFSET -0.707118 -44.0221 0.360014
        CHANNELS 3 Zrotation Xrotation Yrotation
        JOINT Bip001_L_Foot
        {
          OFFSET -0.651902 -40.5938 -3.56146
          CHANNELS 3 Zrotation Xrotation Yrotation
          JOINT Bip001_L_Toe0
          {
            OFFSET 0.0530839 -10.2181 13.1504
            CHANNELS 3 Zrotation Xrotation Yrotation
            End Site
            {
              OFFSET -1.02532e-005 0 7.55606
            }
          }
        }
      }
    }
    JOINT Bip001_R_Thigh
    {
      OFFSET -11.0458 -10.2191 0.0115893
      CHANNELS 3 Zrotation Xrotation Yrotation
      JOINT Bip001_R_Calf
      {
        OFFSET 0.706994 -44.0221 0.35984
        CHANNELS 3 Zrotation Xrotation Yrotation
        JOINT Bip001_R_Foot
        {
          OFFSET 0.651786 -40.5938 -3.5613
          CHANNELS 3 Zrotation Xrotation Yrotation
          JOINT Bip001_R_Toe0
          {
            OFFSET -0.0531479 -10.2181 13.1504
            CHANNELS 3 Zrotation Xrotation Yrotation
            End Site
            {
              OFFSET -1.02894e-005 0 7.55606
            }
          }
        }
      }
    }
    JOINT Bip001_Spine1
    {
      OFFSET 1.87041e-005 14.5736 1.08638
      CHANNELS 3 Zrotation Xrotation Yrotation
      JOINT Bip001_Spine2
      {
        OFFSET 2.24614e-005 14.5058 -1.69078
        CHANNELS 3 Zrotation Xrotation Yrotation
        JOINT Bip001_Neck
        {
          OFFSET 2.20278e-005 15.3945 -0.489414
          CHANNELS 3 Zrotation Xrotation Yrotation
          JOINT Bip001_L_Clavicle
          {
            OFFSET 6.06036 -0.000579998 0.00836775
            CHANNELS 3 Zrotation Xrotation Yrotation
            JOINT Bip001_L_UpperArm
            {
              OFFSET 11.5509 -0.0600302 0.00193952
              CHANNELS 3 Zrotation Xrotation Yrotation
              JOINT Bip001_L_Forearm
              {
                OFFSET 25.9523 0.0806089 -2.15551
                CHANNELS 3 Zrotation Xrotation Yrotation
                JOINT Bip001_L_Hand
                {
                  OFFSET 32.2476 0.153767 1.63968
                  CHANNELS 3 Zrotation Xrotation Yrotation
                  JOINT Bip001_L_Finger0
                  {
                    OFFSET 6.04639 -2.20976 5.90322
                    CHANNELS 3 Zrotation Xrotation Yrotation
                    End Site
                    {
                      OFFSET 4.22376 -1.43895 0.606486
                    }
                  }
                  JOINT Bip001_L_Finger1
                  {
                    OFFSET 11.0826 -0.704819 -0.198153
                    CHANNELS 3 Zrotation Xrotation Yrotation
                    End Site
                    {
                      OFFSET 6.20028 -0.397518 -0.0787166
                    }
                  }
                }
              }
            }
          }
          JOINT Bip001_R_Clavicle
          {
            OFFSET -6.06036 -0.000563197 0.00835105
            CHANNELS 3 Zrotation Xrotation Yrotation
            JOINT Bip001_R_UpperArm
            {
              OFFSET -11.5509 -0.0599978 0.00190698
              CHANNELS 3 Zrotation Xrotation Yrotation
              JOINT Bip001_R_Forearm
              {
                OFFSET -25.9523 0.080682 -2.1559
                CHANNELS 3 Zrotation Xrotation Yrotation
                JOINT Bip001_R_Hand
                {
                  OFFSET -32.2476 0.153858 1.63991
                  CHANNELS 3 Zrotation Xrotation Yrotation
                  JOINT Bip001_R_Finger0
                  {
                    OFFSET -6.04641 -2.20974 5.90321
                    CHANNELS 3 Zrotation Xrotation Yrotation
                    End Site
                    {
                      OFFSET -4.22376 -1.43894 0.606474
                    }
                  }
                  JOINT Bip001_R_Finger1
                  {
                    OFFSET -11.0826 -0.704789 -0.198184
                    CHANNELS 3 Zrotation Xrotation Yrotation
                    End Site
                    {
                      OFFSET -6.20028 -0.397501 -0.0787338
                    }
                  }
                }
              }
            }
          }
          JOINT Bip001_Head
          {
            OFFSET 1.09673e-005 11.2744 2.05948
            CHANNELS 3 Zrotation Xrotation Yrotation
            End Site
            {
              OFFSET 2.89576e-005 20.8808 -2.77728e-005
            }
          }
        }
      }
    }
  }
}
MOTION
Frames:	5
Frame Time:	0.04
31.7223 95.8483 -28.99 1.45221 -0.962525 2.74489 -0.248343 3.25576 0.0775961 4.56185 -3.85241 7.74408 -0.0678115 6.66222 -14.0948 3.07795 -1.70515 -0.111597 -3.55283 -3.86903 5.37922 -3.53986 -4.54858 -0.156872 0.818175 12.2934 -0.696839 -6.3243 -10.6018 0.191778 1.90968 -6.79173 2.32427 -0.503687 6.51111 0.168941 -0.503029 6.51114 0.169422 4.79834 1.04857 -6.24034 -27.953 -0.438733 -3.04878 -49.185 41.1524 -1.73968 11.8878 -0.80564 -24.6557 7.11751 0.839682 -1.94179 3.18055e-015 -6.36111e-015 3.18055e-015 3.18055e-015 -6.36111e-015 1.59028e-015 26.9587 6.26589 13.8549 47.4065 39.944 1.57241 -8.24319 24.2002 7.49662 -7.7658 -8.57432 8.21115 -7.95139e-016 -3.18055e-015 -7.95139e-016 -7.95139e-016 0 -7.95139e-016 -2.90136 15.9929 -3.52915 
31.6792 95.8517 -29.221 1.15329 -0.72724 2.84627 -0.150215 3.22158 0.0129357 4.79375 -4.44366 6.76226 -0.194097 7.06468 -13.1456 3.40316 -1.57828 -0.122078 -3.41089 -4.06866 5.24381 -3.33523 -4.77147 -0.281691 0.806239 12.0291 -0.617608 -6.29118 -10.3781 0.262447 1.89579 -6.72848 2.28513 -0.299212 6.44498 0.0360486 -0.300518 6.44501 0.0350944 5.07732 0.933857 -6.46406 -28.2277 -0.360331 -3.18328 -49.3635 40.9906 -1.52901 11.896 -0.626089 -24.5173 6.87636 0.943571 -1.80844 -4.77083e-015 0 -1.59028e-015 -7.95139e-015 0 -0 26.9497 6.40135 13.7569 45.3569 40.5048 3.8688 -9.37453 22.5316 8.66194 -8.21294 -7.16236 7.89168 0 3.18055e-015 -0 -0 0 3.97569e-016 -2.89218 16.0937 -3.66516 
31.6878 95.8543 -29.3162 1.11064 -0.727704 2.40221 -0.126988 3.22566 0.0329541 4.77894 -4.41409 6.88338 -0.211192 7.03277 -12.922 3.83442 -1.3216 -0.146555 -3.22337 -4.28631 5.11747 -3.35277 -4.93286 -0.410846 0.730086 12.0718 -0.592612 -6.12223 -10.4073 0.768129 1.87495 -6.678 2.28133 -0.257427 6.45658 0.0737023 -0.25691 6.45659 0.0735108 5.07957 0.774059 -6.53833 -28.2541 -0.200254 -3.23105 -49.4669 40.6916 -1.29741 11.7804 -0.593651 -24.7266 7.04771 0.995941 -1.84773 -3.18055e-015 -6.36111e-015 -0 -3.18055e-015 -3.18056e-015 1.59028e-015 27.0996 6.6773 13.882 42.9347 41.4226 6.46405 -10.1445 20.1583 9.41947 -8.17621 -5.87802 7.40986 -0 0 7.95139e-016 -1.59028e-015 0 1.59028e-015 -2.70966 16.2839 -3.79738 
31.7164 95.8496 -29.4103 1.1241 -0.667948 2.02108 -0.125934 3.21836 0.0428904 4.71779 -4.42383 7.41697 -0.130536 6.99259 -13.0929 3.80083 -1.39125 -0.143697 -3.22689 -4.26715 5.17835 -3.43351 -5.18266 -0.0519806 0.82866 12.2171 -0.542578 -6.08351 -10.398 0.726037 1.85588 -6.5996 2.23911 -0.252954 6.43558 0.0928783 -0.25335 6.4356 0.0928324 5.07867 0.604888 -6.60146 -28.2892 -0.0331217 -3.26145 -49.4609 40.6718 -1.14537 11.6996 -0.889925 -25.0505 7.26422 0.970941 -1.8887 8.82781e-032 3.18055e-015 -1.59028e-015 -3.18055e-015 3.18056e-015 -0 27.0776 7.06366 14.3953 40.2116 42.6587 9.11481 -10.9362 17.1139 10.3084 -8.14445 -4.48991 6.64188 -0 0 1.59028e-015 -3.18055e-015 3.18056e-015 7.95139e-016 -2.55647 16.4404 -3.91283 
31.785 95.8504 -29.53 1.15625 -0.634275 1.43418 -0.130843 3.207 0.105394 4.5441 -4.28234 6.66725 -0.146476 6.65999 -12.0702 4.01004 -0.901975 -0.170402 -3.24962 -4.58416 5.1598 -3.56044 -5.46737 0.981283 1.09559 12.355 -0.581464 -6.18919 -10.295 0.280258 1.84762 -6.56816 2.21778 -0.269322 6.41375 0.218514 -0.26877 6.41377 0.218632 5.01641 0.372735 -6.64829 -28.2918 0.217515 -3.32169 -49.2295 40.7851 -1.15985 11.6554 -1.1417 -25.3603 7.29136 1.06223 -1.86228 3.18055e-015 6.36111e-015 -1.59028e-015 0 9.54167e-015 -0 26.942 7.54212 15.0585 37.3535 43.5744 11.7255 -11.84 13.8118 11.3806 -8.09448 -3.24882 5.68747 -6.36111e-015 0 -7.95139e-016 -9.54166e-015 3.18056e-015 -7.95139e-016 -2.29631 16.7055 -4.0675 
